<?xml version="1.0" encoding="iso-8859-1"?>
<!-- Generator: Adobe Illustrator 19.0.0, SVG Export Plug-In . SVG Version: 6.00 Build 0)  -->
<svg version="1.1" id="Capa_1" xmlns="http://www.w3.org/2000/svg" xmlns:xlink="http://www.w3.org/1999/xlink" x="0px" y="0px"
	 viewBox="0 0 512 512" style="enable-background:new 0 0 512 512;" xml:space="preserve">
<g>
	<g>
		<path d="M373.122,123.525c-26.178-38.692-69.689-61.931-116.395-62.165c-37.789-0.203-73.418,14.432-100.286,41.167
			c-27.104,26.97-42.031,62.943-42.031,101.293c0,35.378,12.959,69.272,36.501,95.486l21.608,29.311
			c1.471,1.994,3.741,3.049,6.042,3.049c1.546,0,3.106-0.477,4.446-1.464c3.334-2.458,4.044-7.154,1.585-10.488l-21.825-29.604
			c-0.146-0.199-0.304-0.392-0.47-0.575c-21.207-23.491-32.887-53.931-32.887-85.714c0-34.33,13.357-66.526,37.611-90.66
			c23.866-23.749,55.443-36.801,88.988-36.801c0.213,0,0.431,0,0.644,0.001c41.749,0.209,80.645,20.983,104.045,55.57
			c2.322,3.431,6.983,4.331,10.415,2.009C374.544,131.619,375.443,126.956,373.122,123.525z"/>
	</g>
</g>
<g>
	<g>
		<g>
			<path d="M204.37,392.001c0.76,0,1.5,0.001,1.671,0.001C205.866,392.002,205.128,392.001,204.37,392.001z"/>
			<path d="M388.328,152.853c-1.467-3.875-5.798-5.825-9.669-4.36c-3.874,1.466-5.826,5.795-4.36,9.669
				c5.502,14.538,8.291,29.902,8.291,45.668c0,31.843-11.727,62.327-33.019,85.835c-0.171,0.188-0.331,0.384-0.481,0.589
				l-5.032,6.837c-5.971,8.112-11.918,16.193-17.915,24.329c-0.173,0.235-0.333,0.48-0.478,0.734
				c-11.519,20.191-19.766,40.22-25.047,54.846h-89.256c-3.444-9.555-7.275-19.035-11.468-28.242
				c-1.717-3.769-6.164-5.435-9.934-3.717c-3.77,1.717-5.434,6.165-3.717,9.934c3.691,8.105,6.751,15.673,9.153,22.025H195
				c-4.143,0-7.5,3.358-7.5,7.5V407H184c-4.143,0-7.5,3.358-7.5,7.5v30c0,4.142,3.357,7.5,7.5,7.5h3.5v22.5
				c0,4.142,3.357,7.5,7.5,7.5h4.961l5.261,24.1c0.752,3.444,3.802,5.9,7.327,5.9h86.902c3.525,0,6.575-2.456,7.327-5.9l5.261-24.1
				H317c4.143,0,7.5-3.358,7.5-7.5V452h3.5c4.143,0,7.5-3.358,7.5-7.5v-30c0-4.142-3.357-7.5-7.5-7.5h-3.5v-22.5
				c0-4.142-3.357-7.5-7.5-7.5h-0.391c5.025-13.3,12.251-30.114,21.87-47.035c5.911-8.019,11.774-15.986,17.66-23.983l4.809-6.534
				c23.634-26.233,36.643-60.174,36.643-95.619C397.59,186.244,394.474,169.093,388.328,152.853z M293.412,497h-74.824l-3.274-15
				h81.373L293.412,497z M309.5,467h-107v-15h107V467z M320.5,422v15h-129v-15h32.333c4.143,0,7.5-3.358,7.5-7.5
				c0-4.142-3.357-7.5-7.5-7.5H202.5v-15c0.001,0,0.016,0,0.039,0c0.188,0,1.02,0.001,1.831,0.001c-0.807,0-1.636-0.001-1.829-0.001
				h106.917c-0.186,0-0.967,0.001-1.749,0.001c0.785,0,1.57-0.001,1.751-0.001h0.039v15H256c-4.143,0-7.5,3.358-7.5,7.5
				c0,4.142,3.357,7.5,7.5,7.5H320.5z"/>
			<path d="M307.71,392.001c-0.785,0-1.57,0.001-1.751,0.001C306.136,392.002,306.922,392.001,307.71,392.001z"/>
		</g>
	</g>
</g>
<g>
	<g>
		<path d="M256,0c-4.143,0-7.5,3.358-7.5,7.5v34.31c0,4.142,3.357,7.5,7.5,7.5s7.5-3.358,7.5-7.5V7.5C263.5,3.358,260.143,0,256,0z"
			/>
	</g>
</g>
<g>
	<g>
		<path d="M177.15,60.937l-17.155-29.713c-2.072-3.588-6.659-4.816-10.245-2.745c-3.587,2.071-4.816,6.658-2.745,10.245
			l17.155,29.713c1.39,2.406,3.91,3.751,6.502,3.751c1.272,0,2.563-0.324,3.743-1.006C177.992,69.111,179.221,64.524,177.15,60.937z
			"/>
	</g>
</g>
<g>
	<g>
		<path d="M111.928,120.559l-29.713-17.155c-3.586-2.072-8.176-0.843-10.245,2.745c-2.072,3.587-0.842,8.174,2.745,10.245
			l29.713,17.155c1.181,0.682,2.471,1.006,3.743,1.006c2.592,0,5.113-1.345,6.502-3.751
			C116.744,127.217,115.515,122.63,111.928,120.559z"/>
	</g>
</g>
<g>
	<g>
		<path d="M437.285,308.404l-29.713-17.155c-3.59-2.072-8.175-0.842-10.245,2.745c-2.071,3.587-0.842,8.174,2.745,10.245
			l29.713,17.155c1.182,0.682,2.471,1.006,3.743,1.006c2.592,0,5.113-1.346,6.502-3.751
			C442.102,315.062,440.872,310.475,437.285,308.404z"/>
	</g>
</g>
<g>
	<g>
		<path d="M85.31,204.7H51c-4.143,0-7.5,3.358-7.5,7.5c0,4.142,3.357,7.5,7.5,7.5h34.31c4.142,0,7.5-3.358,7.5-7.5
			C92.81,208.058,89.453,204.7,85.31,204.7z"/>
	</g>
</g>
<g>
	<g>
		<path d="M461,204.7h-34.31c-4.143,0-7.5,3.358-7.5,7.5c0,4.142,3.357,7.5,7.5,7.5H461c4.143,0,7.5-3.358,7.5-7.5
			C468.5,208.058,465.143,204.7,461,204.7z"/>
	</g>
</g>
<g>
	<g>
		<path d="M114.673,293.56c-2.07-3.587-6.659-4.816-10.245-2.745L74.715,307.97c-3.587,2.071-4.816,6.658-2.745,10.245
			c1.389,2.406,3.91,3.751,6.502,3.751c1.272,0,2.563-0.324,3.743-1.006l29.713-17.155
			C115.515,301.734,116.744,297.147,114.673,293.56z"/>
	</g>
</g>
<g>
	<g>
		<path d="M440.03,105.716c-2.07-3.588-6.66-4.817-10.245-2.745l-29.713,17.155c-3.587,2.071-4.816,6.658-2.745,10.245
			c1.389,2.405,3.91,3.751,6.502,3.751c1.272,0,2.563-0.324,3.743-1.006l29.713-17.155
			C440.872,113.89,442.101,109.303,440.03,105.716z"/>
	</g>
</g>
<g>
	<g>
		<path d="M362.25,27.728c-3.589-2.072-8.175-0.843-10.245,2.745L334.85,60.186c-2.072,3.586-0.842,8.174,2.745,10.245
			c1.182,0.682,2.471,1.006,3.743,1.006c2.592,0,5.113-1.345,6.502-3.751l17.155-29.713
			C367.066,34.386,365.837,29.799,362.25,27.728z"/>
	</g>
</g>
<g>
	<g>
		<path d="M221.719,236.82l-34.799-28.17l34.799-28.171c3.219-2.606,3.717-7.329,1.11-10.548c-2.606-3.22-7.328-3.717-10.548-1.11
			l-42,34c-1.759,1.424-2.781,3.566-2.781,5.829s1.022,4.405,2.781,5.829l42,34c1.389,1.125,3.057,1.671,4.714,1.671
			c2.186,0,4.353-0.951,5.834-2.782C225.435,244.149,224.938,239.426,221.719,236.82z"/>
	</g>
</g>
<g>
	<g>
		<path d="M341.719,202.822l-42-34c-3.22-2.607-7.942-2.109-10.548,1.11s-2.109,7.942,1.11,10.548l34.799,28.171l-34.799,28.171
			c-3.219,2.605-3.717,7.327-1.11,10.547c1.482,1.831,3.648,2.782,5.834,2.782c1.657,0,3.325-0.547,4.714-1.671l42-34
			c1.759-1.424,2.781-3.566,2.781-5.829S343.478,204.246,341.719,202.822z"/>
	</g>
</g>
<g>
	<g>
		<path d="M281.894,146.731c-3.82-1.597-8.215,0.204-9.813,4.025l-46,110c-1.599,3.821,0.204,8.215,4.025,9.813
			c0.945,0.396,1.926,0.583,2.891,0.583c2.934,0,5.72-1.732,6.922-4.608l46-110C287.518,152.723,285.715,148.329,281.894,146.731z"
			/>
	</g>
</g>
<g>
</g>
<g>
</g>
<g>
</g>
<g>
</g>
<g>
</g>
<g>
</g>
<g>
</g>
<g>
</g>
<g>
</g>
<g>
</g>
<g>
</g>
<g>
</g>
<g>
</g>
<g>
</g>
<g>
</g>
</svg>
